# xmcd CD database file
#
# Track frame offsets:
#	150
#	600
#	45915
#	82535
#	135740
#	177123
#	213976
#	250823
#	286425
#
# Disc length: 4483 seconds
#
# Revision: 1
# Processed by: cddbd v1.5.2PL0 Copyright (c) Steve Scherf et al.
# Submitted via: CDex 1.70beta2
#
DISCID=68118109
DTITLE=Håkan Nesser - Fallet G - CD 06/13
DYEAR=2003
DGENRE=CD-BOK
TTITLE0=06.01
TTITLE1=06.02
TTITLE2=06.03
TTITLE3=06.04
TTITLE4=06.05
TTITLE5=06.06
TTITLE6=06.07
TTITLE7=06.08
TTITLE8=06.09
EXTD=YEAR: 2003
EXTT0=
EXTT1=
EXTT2=
EXTT3=
EXTT4=
EXTT5=
EXTT6=
EXTT7=
EXTT8=
PLAYORDER=
